<?xml version="1.0" encoding="utf-8"?><svg viewBox="0 0 100 100" xmlns="http://www.w3.org/2000/svg" width="200px" height="200px" xmlns:xlink="http://www.w3.org/1999/xlink" style="width:100%;height:100%;background-size:initial;background-repeat-y:initial;background-repeat-x:initial;background-position-y:initial;background-position-x:initial;background-origin:initial;background-color:initial;background-clip:initial;background-attachment:initial;animation-play-state:paused" ><g class="ldl-scale" style="transform-origin:50% 50%;transform:rotate(0deg) scale(0.8, 0.8);animation-play-state:paused" ><g style="animation-play-state:paused" ><path fill="#e0e0e0" d="M70.671 85.365H18.038a3.171 3.171 0 0 1-3.171-3.171V13.171A3.171 3.171 0 0 1 18.038 10h52.633a3.171 3.171 0 0 1 3.171 3.171v69.022a3.17 3.17 0 0 1-3.171 3.172z" style="fill:rgb(255, 252, 252);animation-play-state:paused" ></path>
<path d="M27.492 22.493h32.313" stroke-miterlimit="10" stroke-linejoin="round" stroke-linecap="round" stroke-width="3" stroke="#323232" fill="none" style="stroke:rgb(50, 50, 50);animation-play-state:paused" ></path>
<path d="M27.492 32.028h32.313" stroke-miterlimit="10" stroke-linejoin="round" stroke-linecap="round" stroke-width="3" stroke="#323232" fill="none" style="stroke:rgb(50, 50, 50);animation-play-state:paused" ></path>
<path d="M27.492 41.563h32.313" stroke-miterlimit="10" stroke-linejoin="round" stroke-linecap="round" stroke-width="3" stroke="#323232" fill="none" style="stroke:rgb(50, 50, 50);animation-play-state:paused" ></path>
<path d="M27.492 51.098h16.421" stroke-miterlimit="10" stroke-linejoin="round" stroke-linecap="round" stroke-width="3" stroke="#323232" fill="none" style="stroke:rgb(50, 50, 50);animation-play-state:paused" ></path>
<path d="M27.492 72.287h16.421" stroke-miterlimit="10" stroke-linejoin="round" stroke-linecap="round" stroke-width="3" stroke="#323232" fill="none" style="stroke:rgb(50, 50, 50);animation-play-state:paused" ></path></g>
<path fill="#e15c64" d="M61.176 76.607l-4.59 11.871a.39.39 0 0 0 .522.498l4.32-1.911a.39.39 0 0 1 .515.199l1.911 4.32a.39.39 0 0 0 .721-.017l4.59-11.871a4.283 4.283 0 0 0-3.051-5.722 4.282 4.282 0 0 0-4.938 2.633z" style="fill:rgb(236, 0, 14);animation-play-state:paused" ></path>
<path fill="#e15c64" d="M79.048 76.607l4.59 11.871a.39.39 0 0 1-.522.498l-4.32-1.911a.39.39 0 0 0-.515.199l-1.911 4.32a.39.39 0 0 1-.721-.017l-4.59-11.871a4.283 4.283 0 0 1 3.051-5.722 4.281 4.281 0 0 1 4.938 2.633z" style="fill:rgb(236, 0, 14);animation-play-state:paused" ></path>
<g style="animation-play-state:paused" ><path fill="#f47e5f" d="M71.224 53.11l1.227 1.17c.358.341.881.445 1.342.267l1.582-.611a1.277 1.277 0 0 1 1.629.675l.686 1.55c.2.452.643.748 1.138.76l1.695.041c.682.016 1.23.565 1.247 1.247l.041 1.695c.012.494.308.937.76 1.138l1.55.686c.623.276.92.993.675 1.629l-.611 1.582c-.178.461-.074.984.267 1.342l1.17 1.227c.47.494.47 1.269 0 1.763l-1.17 1.227a1.279 1.279 0 0 0-.267 1.342l.611 1.582a1.277 1.277 0 0 1-.675 1.629l-1.55.686c-.452.2-.748.643-.76 1.138l-.041 1.695a1.278 1.278 0 0 1-1.247 1.247l-1.695.041a1.28 1.28 0 0 0-1.138.76l-.686 1.55a1.28 1.28 0 0 1-1.629.675l-1.582-.611a1.279 1.279 0 0 0-1.342.267l-1.227 1.17c-.494.47-1.269.47-1.763 0l-1.227-1.17a1.279 1.279 0 0 0-1.342-.267l-1.582.611a1.277 1.277 0 0 1-1.629-.675l-.686-1.55a1.278 1.278 0 0 0-1.138-.76l-1.695-.041a1.278 1.278 0 0 1-1.247-1.247l-.041-1.695a1.28 1.28 0 0 0-.76-1.138l-1.55-.686a1.28 1.28 0 0 1-.675-1.629l.611-1.582a1.279 1.279 0 0 0-.267-1.342l-1.17-1.227a1.278 1.278 0 0 1 0-1.763l1.17-1.227c.341-.358.445-.881.267-1.342l-.611-1.582a1.277 1.277 0 0 1 .675-1.629l1.55-.686c.452-.2.748-.643.76-1.138l.041-1.695a1.278 1.278 0 0 1 1.247-1.247l1.695-.041a1.28 1.28 0 0 0 1.138-.76l.686-1.55a1.28 1.28 0 0 1 1.629-.675l1.582.611c.461.178.984.074 1.342-.267l1.227-1.17a1.278 1.278 0 0 1 1.763 0z" style="fill:rgb(244, 126, 95);animation-play-state:paused" ></path>
<circle fill="#f7b26a" r="10.362" cy="68.389" cx="70.343" style="fill:rgb(249, 185, 119);animation-play-state:paused" ></circle>
<path fill="#f5e169" d="M70.778 62.241l1.586 3.214a.486.486 0 0 0 .366.266l3.547.515a.486.486 0 0 1 .269.828l-2.567 2.502a.487.487 0 0 0-.14.43l.606 3.533a.486.486 0 0 1-.705.512l-3.173-1.668a.488.488 0 0 0-.452 0l-3.173 1.668a.486.486 0 0 1-.705-.512l.606-3.533a.485.485 0 0 0-.14-.43l-2.567-2.502a.486.486 0 0 1 .269-.828l3.547-.515a.486.486 0 0 0 .366-.266l1.586-3.214a.488.488 0 0 1 .874 0z" style="fill:rgb(255, 233, 100);animation-play-state:paused" ></path></g>
<metadata xmlns:d="https://loading.io/stock/" style="animation-play-state:paused" ><d:name style="animation-play-state:paused" >certificate</d:name>


<d:tags style="animation-play-state:paused" >certificate,contract,deal,sales,promise,sign,debt,bonds,stock option,fund,insurance,futures,interest</d:tags>


<d:license style="animation-play-state:paused" >by</d:license>


<d:slug style="animation-play-state:paused" >i3knsd</d:slug></metadata></g><!-- generated by https://loading.io/ --></svg>