<?xml version="1.0" encoding="utf-8"?><svg viewBox="0 0 100 100" xmlns="http://www.w3.org/2000/svg" width="200px" height="200px" xmlns:xlink="http://www.w3.org/1999/xlink" style="width:100%;height:100%;background-size:initial;background-repeat-y:initial;background-repeat-x:initial;background-position-y:initial;background-position-x:initial;background-origin:initial;background-color:initial;background-clip:initial;background-attachment:initial;animation-play-state:paused" ><g class="ldl-scale" style="transform-origin:50% 50%;transform:rotate(0deg) scale(0.8, 0.8);animation-play-state:paused" ><g style="animation-play-state:paused" ><path stroke-miterlimit="10" stroke-linejoin="round" stroke-linecap="round" stroke-width="3" stroke="#000" fill="none" d="M78.475 48.748v-8.545c0-11.871-9.623-21.494-21.494-21.494H43.019c-11.871 0-21.494 9.623-21.494 21.494v8.545" style="stroke:rgb(250, 243, 243);animation-play-state:paused" ></path>
<path stroke-miterlimit="10" stroke-linejoin="round" stroke-linecap="round" stroke-width="3" stroke="#000" fill="none" d="M43.019 81.291c-11.871 0-21.494-9.623-21.494-21.494v-8.545" style="stroke:rgb(250, 243, 243);animation-play-state:paused" ></path>
<path d="M50 81.291h-6.981" stroke-miterlimit="10" stroke-linejoin="round" stroke-linecap="round" stroke-width="9" stroke="#000" fill="none" style="stroke:rgb(250, 243, 243);animation-play-state:paused" ></path>
<path stroke-miterlimit="10" stroke-linejoin="round" stroke-linecap="round" stroke-width="3" stroke="#000" fill="none" d="M21.525 65.121h0C15.16 65.121 10 59.961 10 53.595v-5.132c0-6.365 5.16-11.526 11.526-11.526h0v28.184z" style="stroke:rgb(250, 243, 243);animation-play-state:paused" ></path>
<path stroke-miterlimit="10" stroke-linejoin="round" stroke-linecap="round" stroke-width="3" stroke="#000" fill="none" d="M78.474 65.121h0C84.84 65.121 90 59.961 90 53.595v-5.132c0-6.365-5.16-11.526-11.526-11.526h0v28.184z" style="stroke:rgb(250, 243, 243);animation-play-state:paused" ></path></g>
<g style="animation-play-state:paused" ><path d="M35 38h12v12H35v12h12" stroke-miterlimit="10" stroke-linejoin="round" stroke-linecap="round" stroke-width="3" stroke="#e15c64" fill="none" style="stroke:rgb(255, 0, 15);animation-play-state:paused" ></path>
<path d="M53 38v12h12v12" stroke-miterlimit="10" stroke-linejoin="round" stroke-linecap="round" stroke-width="3" stroke="#e15c64" fill="none" style="stroke:rgb(255, 0, 15);animation-play-state:paused" ></path>
<path d="M65 38v12" stroke-miterlimit="10" stroke-linejoin="round" stroke-linecap="round" stroke-width="3" stroke="#e15c64" fill="none" style="stroke:rgb(255, 0, 15);animation-play-state:paused" ></path></g>
<metadata xmlns:d="https://loading.io/stock/" style="animation-play-state:paused" ><d:name style="animation-play-state:paused" >customer service</d:name>


<d:tags style="animation-play-state:paused" >customer service,support,helpdesk,contact,information,expertise,servant,call center,operator,concall</d:tags>


<d:license style="animation-play-state:paused" >by</d:license>


<d:slug style="animation-play-state:paused" >j74vpk</d:slug></metadata></g><!-- generated by https://loading.io/ --></svg>