<?xml version="1.0" encoding="utf-8"?><svg xml:space="preserve" viewBox="0 0 100 100" y="0" x="0" xmlns="http://www.w3.org/2000/svg" id="圖層_1" version="1.1" width="200px" height="200px" xmlns:xlink="http://www.w3.org/1999/xlink" style="width:100%;height:100%;background-size:initial;background-repeat-y:initial;background-repeat-x:initial;background-position-y:initial;background-position-x:initial;background-origin:initial;background-color:initial;background-clip:initial;background-attachment:initial;animation-play-state:paused" ><g class="ldl-scale" style="transform-origin:50% 50%;transform:rotate(0deg) scale(0.78, 0.78);animation-play-state:paused" ><path stroke-miterlimit="10" stroke-width="3.5" stroke="#333" fill="#a0c8d7" d="M79.26 76.995H18.482a5.86 5.86 0 0 1-5.86-5.86V35.186a5.86 5.86 0 0 1 5.86-5.86H79.26a5.86 5.86 0 0 1 5.86 5.86v35.949a5.86 5.86 0 0 1-5.86 5.86z" style="stroke:rgb(51, 51, 51);fill:rgb(255, 255, 255);animation-play-state:paused" ></path>
<path d="M19.167 50h-6.546v-8.757H85.12V50H19.167" stroke-miterlimit="10" stroke-width="3.5" stroke="#333" fill="#333" style="stroke:rgb(51, 51, 51);fill:rgb(51, 51, 51);animation-play-state:paused" ></path>
<path d="M55 62h20.667v7.333H55z" fill="#e0e0e0" style="fill:rgb(3, 3, 3);animation-play-state:paused" ></path>
<circle fill="#e0e0e0" r="6.083" cy="63.25" cx="24.583" style="fill:rgb(3, 3, 3);animation-play-state:paused" ></circle>
<circle fill="#f8b26a" r="6.083" cy="63.25" cx="32.083" style="fill:rgb(106, 153, 248);animation-play-state:paused" ></circle>
<path stroke-miterlimit="10" stroke-linecap="round" stroke-width="3.5" stroke="#fff" fill="#a0c8d7" d="M19.214 42.688v-4.919c0-1.115.904-2.018 2.018-2.018h1.393" style="stroke:rgb(255, 255, 255);fill:rgb(255, 255, 255);animation-play-state:paused" ></path>
<path d="M19.214 50v-1.5" stroke-miterlimit="10" stroke-linecap="round" stroke-width="3.5" stroke="#fff" fill="#a0c8d7" style="stroke:rgb(255, 255, 255);fill:rgb(255, 255, 255);animation-play-state:paused" ></path>
<path stroke-miterlimit="10" stroke-width="3.5" stroke="#000" opacity=".2" d="M79.26 29.326H55.748l-12.03 47.669H79.26a5.86 5.86 0 0 0 5.86-5.86V35.186a5.86 5.86 0 0 0-5.86-5.86z" style="animation-play-state:paused" ></path>
<g style="animation-play-state:paused" ><circle fill="#fff" stroke-miterlimit="10" stroke-width="3.5" stroke="#333" r="12.946" cy="32.977" cx="79.676" style="stroke:rgb(51, 51, 51);fill:rgb(255, 255, 255);animation-play-state:paused" ></circle>
<path d="M85.32 27.528l-7.003 7.004-4.168-4.168-2.716 2.717 6.884 6.885 9.72-9.721z" fill="#abbd81" style="fill:rgb(129, 189, 151);animation-play-state:paused" ></path></g>
<metadata xmlns:d="https://loading.io/stock/" style="animation-play-state:paused" ><d:name style="animation-play-state:paused" >payment</d:name>


<d:tags style="animation-play-state:paused" >payment,credit card,pay,paid,purchase,checkout,spend,order,deposit,withdraw,shopping,sell,money</d:tags>


<d:license style="animation-play-state:paused" >by</d:license>


<d:slug style="animation-play-state:paused" >f6rngo</d:slug></metadata></g><!-- generated by https://loading.io/ --></svg>